#!OML:ASF E:\Style3\Style3.ASF
:FULLY-SPECIFIED
:DEGREES
4987
root 0.649724 17.7439 0.727102 188.494 80.8925 531.415
lowerback -5.57359 -1.35192 -5.04429
upperback -9.12116 -1.29018 0.673586
thorax -6.28558 -0.10851 3.50442
lowerneck -10.5009 -2.73718 -7.17758
upperneck 34.4971 -3.89938 9.19626
head 13.7597 -0.900848 4.55432
rclavicle 1.00227e-014 -9.405e-015
rhumerus -8.28992 29.8989 -64.296
rradius 123.747
rwrist -9.91979
rhand 27.268 16.4344
rfingers 7.12502
rthumb 51.2349 -4.11498
lclavicle 1.00227e-014 -9.405e-015
lhumerus -6.65368 -26.3664 63.6136
lradius 118.961
lwrist 10.6078
lhand 20.5211 20.481
lfingers 7.12502
lthumb 45.0202 43.9726
rfemur -28.6006 0.616768 14.2828
rtibia 38.1038
rfoot -13.045 -8.5371
rtoes -27.9994
lfemur -9.61512 -17.6785 -13.9445
ltibia -1.43125e-014
lfoot -7.05811 18.0336
ltoes -18.4199
4988
root 0.64695 17.7448 0.725262 187.987 81.0123 531.033
lowerback -5.43737 -1.36122 -5.1693
upperback -9.04391 -1.31929 0.601304
thorax -6.27662 -0.123364 3.5004
lowerneck -10.5063 -3.00895 -7.25963
upperneck 35.4215 -4.05279 8.61169
head 14.192 -1.02905 4.36289
rclavicle 2.41539e-014 1.37161e-014
rhumerus -8.14139 29.4374 -64.0143
rradius 124.093
rwrist -10.5765
rhand 27.4916 16.4932
rfingers 7.12502
rthumb 51.4383 -3.94029
lclavicle 2.41539e-014 1.37161e-014
lhumerus -6.71372 -26.3723 63.645
lradius 119.095
lwrist 10.6493
lhand 20.6872 20.5014
lfingers 7.12502
lthumb 45.1747 43.9318
rfemur -28.0734 0.837749 14.2175
rtibia 37.4504
rfoot -13.5679 -8.72657
rtoes -27.4363
lfemur -9.45595 -17.5979 -14.08
ltibia 1.43125e-014
lfoot -7.05934 18.0409
ltoes -18.656
4989
root 0.646939 17.7466 0.725987 187.587 81.1004 530.765
lowerback -5.41856 -1.39244 -5.32052
upperback -8.91742 -1.37074 0.530751
thorax -6.14507 -0.153014 3.51032
lowerneck -10.6026 -3.23879 -7.44449
upperneck 36.4994 -4.1732 8.2626
head 14.7363 -1.12139 4.30223
rclavicle 2.0245e-014 -2.48481e-016
rhumerus -7.89502 28.8942 -63.652
rradius 124.388
rwrist -11.2735
rhand 27.9425 16.5922
rfingers 7.12502
rthumb 51.848 -3.60332
lclavicle 2.0245e-014 -2.48481e-016
lhumerus -6.69631 -26.2972 63.6447
lradius 119.225
lwrist 10.8105
lhand 20.999 20.4867
lfingers 7.12502
lthumb 45.4645 43.801
rfemur -27.4443 1.15957 14.168
rtibia 36.6713
rfoot -13.9807 -9.05732
rtoes -26.6159
lfemur -9.27921 -17.5432 -14.184
ltibia -4.77083e-015
lfoot -7.00373 18.0225
ltoes -18.7763
4990
root 0.643876 17.7472 0.72656 187.641 81.1759 530.838
lowerback -5.56919 -1.45598 -5.46287
upperback -8.77542 -1.44995 0.524087
thorax -5.8967 -0.198236 3.57869
lowerneck -10.5626 -3.46579 -7.72597
upperneck 37.4107 -4.24912 7.86951
head 15.1825 -1.22292 4.23291
rclavicle -5.48521e-015 -1.1778e-014
rhumerus -7.53965 28.4609 -63.2172
rradius 124.731
rwrist -12.1105
rhand 28.249 16.3965
rfingers 7.12502
rthumb 52.1261 -3.634
lclavicle -5.48521e-015 -1.1778e-014
lhumerus -6.59185 -26.1435 63.623
lradius 119.31
lwrist 11.0929
lhand 21.2364 20.4992
lfingers 7.12502
lthumb 45.685 43.7238
rfemur -26.8846 1.54731 14.1698
rtibia 35.7592
rfoot -14.0668 -9.54181
rtoes -26.8897
lfemur -9.26081 -17.4807 -14.1863
ltibia 2.22639e-014
lfoot -6.9388 18.0399
ltoes -18.7821
4991
root 0.640047 17.7457 0.727406 187.472 81.258 530.69
lowerback -5.65971 -1.49421 -5.64139
upperback -8.64596 -1.49839 0.499199
thorax -5.69947 -0.224958 3.64935
lowerneck -10.3817 -3.73277 -7.98399
upperneck 38.152 -4.34304 7.33048
head 15.5204 -1.35561 4.0774
rclavicle 1.46479e-014 6.75868e-015
rhumerus -7.47929 28.0115 -62.7899
rradius 125.061
rwrist -12.9415
rhand 28.264 16.3822
rfingers 7.12502
rthumb 52.1396 -3.64019
lclavicle 1.46479e-014 6.75868e-015
lhumerus -6.52456 -26.1236 63.664
lradius 119.424
lwrist 11.4568
lhand 21.1991 20.5231
lfingers 7.12502
lthumb 45.6504 43.7618
rfemur -26.243 1.99175 14.1317
rtibia 34.7164
rfoot -14.5685 -10.0481
rtoes -26.54
lfemur -9.22673 -17.417 -14.2276
ltibia 1.74931e-014
lfoot -6.92999 18.0406
ltoes -18.8418
4992
root 0.642282 17.7438 0.723268 187.396 81.3632 530.659
lowerback -5.82549 -1.54991 -5.71149
upperback -8.47429 -1.56811 0.454188
thorax -5.4136 -0.274511 3.63563
lowerneck -10.3392 -3.93258 -8.20085
upperneck 38.9205 -4.33652 6.80516
head 15.9025 -1.43949 3.93403
rclavicle 2.02263e-014 1.09332e-015
rhumerus -7.35983 27.6473 -62.4126
rradius 125.295
rwrist -13.7902
rhand 28.0467 16.6284
rfingers 7.12502
rthumb 51.9426 -3.51127
lclavicle 2.02263e-014 1.09332e-015
lhumerus -6.51113 -25.9928 63.6295
lradius 119.546
lwrist 11.797
lhand 21.2432 20.4351
lfingers 7.12502
lthumb 45.6914 43.6571
rfemur -25.4664 2.41277 14.0999
rtibia 33.5315
rfoot -15.124 -10.649
rtoes -26.3312
lfemur -9.11203 -17.3357 -14.295
ltibia 2.54444e-014
lfoot -7.03237 18.0154
ltoes -19.1885
